
        <svg xmlns="http://www.w3.org/2000/svg" xmlns:xlink="http://www.w3.org/1999/xlink" version="1.1" width="3176.470588235294" height="1420.5882352941178" viewBox="0 0 3176.470588235294 1420.5882352941178">
			
			<g transform="scale(8.823529411764707) translate(10, 10)">
				<defs id="SvgjsDefs3219"><linearGradient id="SvgjsLinearGradient3228"><stop id="SvgjsStop3229" stop-color="#006838" offset="0"/><stop id="SvgjsStop3230" stop-color="#96cf24" offset="1"/></linearGradient><linearGradient id="SvgjsLinearGradient3231"><stop id="SvgjsStop3232" stop-color="#006838" offset="0"/><stop id="SvgjsStop3233" stop-color="#96cf24" offset="1"/></linearGradient></defs><g id="SvgjsG3220" featureKey="rootContainer" transform="matrix(1,0,0,1,0,0)" fill="#000"><rect y="0" height="1" width="1" opacity="0"/><rect y="136" width="340" height="5"/></g><g id="SvgjsG3221" featureKey="symbolFeature-0" transform="matrix(0.1687803715467453,0,0,0.1687803715467453,-21.435107017509523,-0.3970603536105344)" fill="#000"><defs xmlns="http://www.w3.org/2000/svg"/><g xmlns="http://www.w3.org/2000/svg"><path class="fil0" d="M251 676c0,-35 -28,-62 -62,-62 -34,0 -62,27 -62,62 0,34 28,61 62,61 34,0 62,-27 62,-61zm220 -505c0,34 28,62 62,62 34,0 62,-28 62,-62 0,-34 -28,-62 -62,-62 -34,0 -62,28 -62,62zm-188 394c13,7 30,3 37,-10l60 -104 28 16 -108 188c-7,13 -3,31 10,38 13,7 30,3 38,-10l108 -188 7 -12 71 -123 140 119c13,10 28,7 39,-4 10,-11 8,-29 -3,-38 -146,-123 -124,-110 -268,-199l-200 -4c-15,0 -28,13 -28,28 0,15 13,27 28,27l168 0 -22 39 -55 95 -60 104c-8,13 -4,31 10,38z" style="fill: #04a118;"/></g></g><g id="SvgjsG3222" featureKey="nameFeature-0" transform="matrix(0.6255162358283997,0,0,0.6255162358283997,118.44846950715139,41.8774793669175)" fill="#000"><path d="M35.996 40 l-5.8398 0 l-1.8555 -21.27 l-7.1484 21.27 l-3.7891 0 l-7.1484 -21.27 l-1.875 21.27 l-5.8594 0 l2.3633 -28.223 l8.3594 0 l6.0156 17.715 l6.0938 -17.715 l8.3594 0 z M55.536765625 40.39063 c-8.3008 0 -14.434 -5.6445 -14.434 -14.512 s6.1328 -14.492 14.434 -14.492 c6.2891 0 11.328 3.2227 13.34 8.5742 l-5.4688 1.9922 c-1.25 -3.2813 -4.2383 -5.1758 -7.8711 -5.1758 c-4.8633 0 -8.5938 3.3984 -8.5938 9.1016 s3.7305 9.1211 8.5938 9.1211 c3.6328 0 6.6211 -1.9141 7.8711 -5.1953 l5.4688 1.9922 c-2.0117 5.3516 -7.0508 8.5938 -13.34 8.5938 z M89.7465 25.098 c3.1836 0.87891 5.3125 2.9688 5.3125 6.9922 c0 4.7656 -2.8906 7.9102 -8.8477 7.9102 l-11.621 0 l0 -28.223 l9.1406 0 c6.0938 0 9.2969 2.9297 9.2969 7.7344 c0 2.4805 -1.0742 4.5117 -3.2813 5.5859 z M83.7895 16.641 l-3.5547 0 l0 6.6406 l3.8086 0 c2.5 0 3.5938 -1.4844 3.5938 -3.3984 c0 -1.875 -1.2305 -3.2422 -3.8477 -3.2422 z M85.1175 34.9805 c3.1641 0 4.2578 -1.6992 4.2578 -3.5352 c0 -1.875 -1.0742 -3.6523 -4.375 -3.6523 l-4.7656 0 l0 7.1875 l4.8828 0 z M113.681296875 40.39063 c-8.3008 0 -14.434 -5.6641 -14.434 -14.512 c0 -8.8672 6.1328 -14.492 14.434 -14.492 c8.2813 0 14.414 5.625 14.414 14.492 c0 8.8477 -6.1328 14.512 -14.414 14.512 z M113.681296875 35.0195 c4.8633 0 8.5938 -3.418 8.5938 -9.1406 c0 -5.7031 -3.7305 -9.1016 -8.5938 -9.1016 s-8.5938 3.3984 -8.5938 9.1016 c0 5.7227 3.7305 9.1406 8.5938 9.1406 z M149.2971875 40 l-7.3438 -12.422 l-1.6992 0 l0 12.422 l-5.8594 0 l0 -28.223 l10.234 0 c6.3867 0 9.082 3.7695 9.082 8.4375 c0 3.7891 -2.1484 6.25 -5.9766 7.0703 l8.4961 12.715 l-6.9336 0 z M140.2538875 16.641 l0 6.7383 l3.457 0 c3.125 0 4.3945 -1.3281 4.3945 -3.3594 c0 -2.0117 -1.2695 -3.3789 -4.3945 -3.3789 l-3.457 0 z M180.713203125 11.777000000000001 l5.8398 0 l0 28.223 l-6.7773 0 l-12.5 -20.176 l0 20.176 l-5.8398 0 l0 -28.223 l6.6992 0 l12.578 20.059 l0 -20.059 z M213.65228125 40 l-2.0508 -5.8203 l-11.855 0 l-2.0508 5.8203 l-5.9961 0 l10.391 -28.223 l7.168 0 l10.391 28.223 l-5.9961 0 z M201.46528125 29.277 l8.418 0 l-4.1992 -11.973 z M234.169578125 40.39063 c-6.0547 0 -10.781 -2.9102 -11.641 -8.2031 l6.0547 -1.3867 c0.39063 3.1641 2.7148 4.8047 5.8203 4.8047 c2.3828 0 4.2773 -1.0547 4.2578 -3.4375 c-0.019531 -2.6563 -3.1445 -3.4961 -6.582 -4.5508 c-4.1406 -1.2891 -8.5742 -2.8125 -8.5742 -8.0078 c0 -5.2539 4.2969 -8.2227 9.9609 -8.2227 c4.9609 0 9.9609 2.0117 11.094 7.4219 l-5.6641 1.4063 c-0.52734 -2.8125 -2.4219 -4.043 -5.0781 -4.043 c-2.3633 0 -4.375 0.97656 -4.375 3.3008 c0 2.168 2.7734 2.8906 5.9766 3.8477 c4.2578 1.2891 9.2969 2.9297 9.2969 8.5547 c0 5.9961 -5.0195 8.5156 -10.547 8.5156 z M262.7738125 11.777000000000001 c5.5273 0 8.9648 4.1016 8.9648 9.1211 c0 5.1367 -3.4375 8.9844 -8.9648 8.9844 l-5.8789 0 l0 10.117 l-5.8594 0 l0 -28.223 l11.738 0 z M261.7968125 24.98 c2.9297 0 4.2969 -1.6211 4.2969 -4.1602 c0 -2.4414 -1.3672 -4.1406 -4.2969 -4.1406 l-4.9023 0 l0 8.3008 l4.9023 0 z M290.068015625 40.39063 c-8.3008 0 -14.434 -5.6641 -14.434 -14.512 c0 -8.8672 6.1328 -14.492 14.434 -14.492 c8.2813 0 14.414 5.625 14.414 14.492 c0 8.8477 -6.1328 14.512 -14.414 14.512 z M290.068015625 35.0195 c4.8633 0 8.5938 -3.418 8.5938 -9.1406 c0 -5.7031 -3.7305 -9.1016 -8.5938 -9.1016 s-8.5938 3.3984 -8.5938 9.1016 c0 5.7227 3.7305 9.1406 8.5938 9.1406 z M325.68390625 40 l-7.3438 -12.422 l-1.6992 0 l0 12.422 l-5.8594 0 l0 -28.223 l10.234 0 c6.3867 0 9.082 3.7695 9.082 8.4375 c0 3.7891 -2.1484 6.25 -5.9766 7.0703 l8.4961 12.715 l-6.9336 0 z M316.64060625 16.641 l0 6.7383 l3.457 0 c3.125 0 4.3945 -1.3281 4.3945 -3.3594 c0 -2.0117 -1.2695 -3.3789 -4.3945 -3.3789 l-3.457 0 z M354.189921875 11.777000000000001 l0 5.1563 l-6.6992 0 l0 23.066 l-5.8008 0 l0 -23.066 l-6.7383 0 l0 -5.1563 l19.238 0 z"/></g><g id="SvgjsG3223" featureKey="sloganFeature-0" transform="matrix(1.227095127105713,0,0,1.227095127105713,146.7729043101366,69.63794428116435)" fill="#000"><path d="M8.2502 12.9998 c1.4385 0.48454 2.4444 1.8513 2.4444 3.4054 c0 1.9439 -1.547 3.5282 -3.4704 3.5888 l0 0.0058398 l-6.2242 0 l0 -0.37838 l1.1694 0 l0 -13.243 l-1.1694 0 l0 -0.3784 l6.2242 0 l0 0.0058398 c0.203 0.0062304 0.40562 0.025878 0.60338 0.066132 c1.6613 0.33834 2.867 1.8198 2.867 3.5228 c0 1.5822 -1.0259 2.9262 -2.4444 3.4052 z M4.131 19.62154 l0 -13.243 l-1.5843 0 l0 13.243 l1.5843 0 z M4.5082 6.378 l0 6.4326 l2.6028 0 c1.7681 0 3.2064 -1.4428 3.2064 -3.2162 c0 -1.5237 -1.0788 -2.8494 -2.565 -3.152 c-0.2098 -0.042774 -0.42564 -0.064356 -0.64148 -0.064356 l-2.6028 0 z M7.111 19.62154 c1.7681 0 3.2064 -1.4428 3.2064 -3.2162 c0 -1.5237 -1.0788 -2.8494 -2.565 -3.152 c-0.2098 -0.042774 -0.42564 -0.064356 -0.64148 -0.064356 l-2.6028 0 l0 6.4324 l2.6028 0 z M19.039 6.378 l-4.6218 0 l0 6.1674 l4.6218 0 l0 0.37838 l-4.6218 0 l0 6.6974 l4.6218 0 l0 0.3784 l-7 0 l0 -14 l7 0 l0 0.3784 z M14.038800000000002 19.62162 l0 -13.243 l-1.6215 0 l0 13.243 l1.6215 0 z M32.417 6 l0.38889 0 l0 14 l-0.38889 0 l0 -5.8139 l-6.6111 0 l0 5.8139 l-0.38889 0 l0 -14 l0.38889 0 l0 5.8139 l6.6111 0 l0 -5.8139 z M32.417 13.7972 l0 -1.5945 l-6.6111 0 l0 1.5945 l6.6111 0 z M41.156000000000006 6.378 l-4.6218 0 l0 6.1674 l4.6218 0 l0 0.37838 l-4.6218 0 l0 6.6974 l4.6218 0 l0 0.3784 l-7 0 l0 -14 l7 0 l0 0.3784 z M36.155800000000006 19.62162 l0 -13.243 l-1.6215 0 l0 13.243 l1.6215 0 z M49.4872 6 l7.0058 14.014 l-3.0975 0 l-2.6912 -5.3648 l-5.1217 0 l-2.6716 5.3512 l-0.41611 0 z M45.769400000000005 14.2774 l4.7464 0 l-2.378 -4.7426 z M48.345800000000004 9.119 l5.2792 10.521 l2.2653 0 l-6.403 -12.806 z M60.14 19.6181 l6.0429 0 l0 0.38189 l-8.3489 0 l0 -14 l2.3059 0 l0 13.618 z M59.758 19.6181 l0.000019531 -13.236 l-1.5421 0 l0 13.236 l1.5421 0 z M67.533 6.01 l9.8114 -0.000019531 l0 0.3784 l-3.7359 0 l0 13.622 l-2.3397 0 l0 -13.622 l-3.7359 0 l0 -0.37838 z M73.231 19.63128 l0 -13.243 l-1.5849 0 l0 13.243 l1.5849 0 z M85.69200000000001 6 l0.38889 0 l0 14 l-0.38889 0 l0 -5.8139 l-6.6111 0 l0 5.8139 l-0.38889 0 l0 -14 l0.38889 0 l0 5.8139 l6.6111 0 l0 -5.8139 z M85.69200000000001 13.7972 l0 -1.5945 l-6.6111 0 l0 1.5945 l6.6111 0 z M93.3452 14.186 l1.1309 -1.8105 l-4.007 -5.98 l-2.3162 0 z M98.33500000000001 6.01 l0.45693 0 l-5.248 8.5866 l0 5.4133 l-0.38695 0 l0 -5.4114 l-5.7264 -8.5886 l3.2433 0 l0.060274 0.091386 l3.9648 5.915 z"/></g>
			</g>
		</svg>
	